<svg xmlns="http://www.w3.org/2000/svg" width="960px" height="820px" xmlns:xlink="http://www.w3.org/1999/xlink" viewBox="0 0 600 630" preserveAspectRatio="xMidYMid meet" >
  <line id="e7_line" x1="139.5" y1="500.5" x2="465.5" y2="338" style="stroke:black;fill:none;stroke-width:3.52px;stroke-dasharray:4px, 4px;stroke-opacity:0.3;"/>
  <defs id="svgEditorDefs">
    <polygon id="svgEditorShapeDefs" style="fill:darkcyan;stroke:none;vector-effect:non-scaling-stroke;stroke-width:1px;"/>
    <pattern height="10" id="hatch-black-dash-120" patternTransform="rotate(120) scale(0.4)" patternUnits="userSpaceOnUse" viewBox="0 0 24 10" width="24" x="0" y="0">
      <line style="stroke:black;stroke-width:1px;stroke-dasharray:4,4;" x1="0" x2="24" y1="5" y2="5"/>
    </pattern>
    <pattern height="10" id="hatch-black-dash-45" patternTransform="rotate(45) scale(0.4)" patternUnits="userSpaceOnUse" viewBox="0 0 24 10" width="24" x="0" y="0">
      <line style="stroke:black;stroke-width:1px;stroke-dasharray:4,4;" x1="0" x2="24" y1="5" y2="5"/>
    </pattern>
    <pattern height="10" id="hatch-black-45" patternTransform="rotate(45) scale(0.4)" patternUnits="userSpaceOnUse" viewBox="0 0 10 10" width="10" x="0" y="0">
      <line style="stroke:black;stroke-width:1px;" x1="0" x2="10" y1="5" y2="5"/>
    </pattern>
    <pattern height="10" id="hatch-black-120" patternTransform="rotate(120) scale(0.4)" patternUnits="userSpaceOnUse" viewBox="0 0 10 10" width="10" x="0" y="0">
      <line style="stroke:black;stroke-width:1px;" x1="0" x2="10" y1="5" y2="5"/>
    </pattern>
  </defs>
  <polyline style="stroke:black;fill:none;stroke-width:3.07px;stroke-dasharray:4px, 4px, 8px, 4px;stroke-linecap:butt;stroke-linejoin:round;stroke-opacity:0.3;" id="e5_polyline" points="493,504 334,215 139,501 493,504 465,337 335,215"/>
  <g transform="matrix(0.292969, 0, 0, 0.292969, 121, 479.5)" style="fill:darkcyan; stroke:none; vector-effect:non-scaling-stroke;stroke-width:1px;" id="e8_shape"/>
  <path d="M4.39345,2.22951 c0,-2 -2,-3 -4,-3 c-2,0 -4,1 -4,3 c0,1 0,2 1,3 l1,1 c1,-1 1,-1 2,-1 c2,0 4,-1 4,-3 z" style="fill:darkcyan; stroke:none; vector-effect:non-scaling-stroke;stroke-width:1px;" id="e9_shape" transform="matrix(3.8125, 0, 0, 3.8125, 465.25, 326.438)"/>
  <path d="M-80.0491,44.3443 c0,-2 -2,-3 -4,-3 c-2,0 -4,1 -4,3 c0,1 0,2 1,3 l1,1 c1,-1 1,-1 2,-1 c2,0 4,-1 4,-3 z" style="fill:darkcyan; stroke:none; vector-effect:non-scaling-stroke;stroke-width:1px;" id="e1_shape" transform="matrix(3.8125, 0, 0, 3.8125, 465.25, 326.438)"/>
  <path d="M-29.541,-28.9508 c0,-2 -2,-3 -4,-3 c-2,0 -4,1 -4,3 c0,1 0,2 1,3 l1,1 c1,-1 1,-1 2,-1 c2,0 4,-1 4,-3 z" style="fill:darkcyan; stroke:none; vector-effect:non-scaling-stroke;stroke-width:1px;" id="e4_shape" transform="matrix(3.8125, 0, 0, 3.8125, 465.25, 326.438)"/>
  <path d="M11,45.8197 c0,-2 -2,-3 -4,-3 c-2,0 -4,1 -4,3 c0,1 0,2 1,3 l1,1 c1,-1 1,-1 2,-1 c2,0 4,-1 4,-3 z" style="fill:darkcyan; stroke:none; vector-effect:non-scaling-stroke;stroke-width:1px;" id="e5_shape" transform="matrix(3.8125, 0, 0, 3.8125, 465.25, 326.438)"/>
</svg>